<svg width="413" height="30" viewBox="0 0 413 30" fill="none" xmlns="http://www.w3.org/2000/svg">
<path d="M0.868483 23H8.4111C12.1611 23 14.7605 20.7841 15.3145 17.4176C15.8259 14.392 14.377 12.1761 12.0333 11.9631V11.8778C14.2492 11.3239 15.7833 9.27841 16.2094 6.72159C16.806 3.26989 14.9736 1.18182 11.3088 1.18182H4.49064L0.868483 23ZM1.67814 22.3182L3.34007 12.2614H10.2009C13.2691 12.2614 15.1441 14.392 14.6327 17.4176C14.1213 20.358 11.735 22.3182 8.53894 22.3182H1.67814ZM3.46791 11.5795L5.04462 1.86364H11.181C14.377 1.86364 16.0389 3.6108 15.5276 6.72159C15.1014 9.32102 13.2691 11.5795 10.3287 11.5795H3.46791ZM25.2111 23H25.8929L28.6202 6.63636H27.9384L25.2111 23ZM28.8119 3.65341C29.1529 3.65341 29.4831 3.36577 29.5364 3.05682C29.611 2.63068 29.3233 2.28977 28.8972 2.28977C28.5563 2.28977 28.226 2.58807 28.1727 2.88636C28.0982 3.3125 28.3858 3.65341 28.8119 3.65341ZM41.8433 29.4773C45.6359 29.4773 48.2354 27.3892 48.9172 23.3409L51.6871 6.63636H51.0052L50.3234 10.8125H50.2382C49.7694 8.08523 48.0649 6.38068 45.4229 6.38068C41.545 6.38068 38.5194 10.0028 37.7098 14.8608C36.9001 19.6761 38.8177 23 42.653 23C45.0819 23 47.5961 21.6364 48.8746 18.9091H48.9598L48.2354 23.3409C47.6388 27.0057 45.2524 28.7955 41.8433 28.7955C39.3717 28.7955 37.6246 27.9006 37.1984 25.983L36.5592 26.196C37.028 28.3693 39.116 29.4773 41.8433 29.4773ZM42.653 22.3182C39.2013 22.3182 37.6672 19.2926 38.3916 14.8608C39.116 10.429 41.9285 7.0625 45.3802 7.0625C48.8746 7.0625 50.366 10.429 49.6416 14.8608C48.8746 19.4631 46.0621 22.3182 42.653 22.3182ZM80.6049 23C86.9969 23 91.3861 18.9517 92.5793 12.0057C93.7299 5.23011 90.7895 1.18182 84.781 1.18182H78.5168L74.8947 23H80.6049ZM75.6937 22.3182L79.0814 1.86364H84.6532C90.438 1.86364 92.9415 5.52841 91.8975 12.0057C90.8748 18.3551 86.6667 22.3182 80.7327 22.3182H75.6937ZM106.663 23.3409C109.283 23.3409 111.585 21.6151 112.927 18.9091H113.012L112.33 23H113.012L115.739 6.63636H115.058L114.354 10.8125H114.269C113.864 8.08523 112.075 6.38068 109.454 6.38068C105.64 6.38068 102.55 10.0455 101.741 14.8608C100.952 19.6974 102.785 23.3409 106.663 23.3409ZM106.663 22.6591C103.19 22.6591 101.698 19.2926 102.423 14.8608C103.168 10.429 106.002 7.0625 109.454 7.0625C112.906 7.0625 114.418 10.429 113.673 14.8608C112.948 19.2926 110.136 22.6591 106.663 22.6591ZM132.699 6.63636H129.279L129.929 2.71591H129.247L128.598 6.63636H126.222L126.094 7.31818H128.491L126.478 19.5483C126.094 21.8494 127.586 23.2983 129.588 23.2983C130.1 23.2983 130.483 23.2131 130.952 23.0426L130.867 22.4034C130.441 22.5312 130.1 22.6165 129.716 22.6165C128.054 22.6165 126.819 21.4659 127.159 19.5483L129.173 7.31818H132.571L132.699 6.63636ZM145.946 23.3409C148.567 23.3409 150.868 21.6151 152.21 18.9091H152.296L151.614 23H152.296L155.023 6.63636H154.341L153.638 10.8125H153.553C153.148 8.08523 151.358 6.38068 148.737 6.38068C144.924 6.38068 141.834 10.0455 141.024 14.8608C140.236 19.6974 142.068 23.3409 145.946 23.3409ZM145.946 22.6591C142.473 22.6591 140.982 19.2926 141.706 14.8608C142.452 10.429 145.286 7.0625 148.737 7.0625C152.189 7.0625 153.702 10.429 152.956 14.8608C152.232 19.2926 149.419 22.6591 145.946 22.6591ZM178.215 23H178.896L181.624 6.63636H180.942L178.215 23ZM181.815 3.65341C182.156 3.65341 182.487 3.36577 182.54 3.05682C182.614 2.63068 182.327 2.28977 181.901 2.28977C181.56 2.28977 181.23 2.58807 181.176 2.88636C181.102 3.3125 181.389 3.65341 181.815 3.65341ZM202.262 10.0881C201.878 7.65909 200.355 6.38068 197.787 6.38068C194.815 6.38068 192.503 8.06392 192.077 10.5994C191.736 12.6662 192.844 14.179 195.273 14.8182L197.702 15.4574C199.705 15.9688 200.568 17.1087 200.301 18.7812C199.928 21.0717 197.702 22.6591 194.804 22.6591C192.247 22.6591 190.841 21.4233 190.756 19.1222L190.074 19.2074C190.202 21.8494 191.875 23.3409 194.804 23.3409C198.011 23.3409 200.504 21.6151 200.941 18.9517C201.271 16.9276 200.259 15.3722 197.958 14.7756L195.486 14.1364C193.355 13.5824 192.482 12.4638 192.759 10.7699C193.121 8.58594 195.156 7.0625 197.83 7.0625C200.014 7.0625 201.239 8.08523 201.58 10.2159L202.262 10.0881ZM243.796 12.0909C244.936 5.38991 241.985 0.883522 236.637 0.883522C231.267 0.883522 226.857 5.42188 225.728 12.0909C224.652 18.7386 227.453 23.2983 232.929 23.2983C238.288 23.2983 242.709 18.7706 243.796 12.0909ZM243.114 12.0909C242.123 18.3338 237.947 22.6165 232.887 22.6165C227.89 22.6165 225.355 18.419 226.409 12.0909C227.507 5.8054 231.661 1.56534 236.679 1.56534C241.601 1.56534 244.169 5.74148 243.114 12.0909ZM264.087 17.6307C263.619 20.4858 261.19 22.5312 258.292 22.5312C255.394 22.5312 253.732 20.5284 254.201 17.6307L256.033 6.63636H255.352L253.519 17.6307C252.965 20.9119 254.883 23.2131 258.164 23.2131C260.423 23.2131 262.511 22.1051 263.533 20.4006H263.619L263.192 23H263.874L266.602 6.63636H265.92L264.087 17.6307ZM275.225 23H275.907L277.739 12.0057C278.208 9.15057 280.637 7.10511 283.535 7.10511C284.174 7.10511 284.685 7.19034 285.111 7.3608L285.452 6.72159C284.984 6.55114 284.344 6.4233 283.663 6.4233C281.404 6.4233 279.316 7.53125 278.293 9.23579H278.208L278.634 6.63636H277.952L275.225 23ZM304.439 23L308.306 15.6278H318.118L319.524 23H320.248L316.072 1.18182H315.135L303.714 23H304.439ZM308.657 14.946L315.433 2.03409H315.518L317.99 14.946H308.657ZM351.496 6.63636H348.077L348.727 2.71591H348.045L347.395 6.63636H345.019L344.891 7.31818H347.288L345.275 19.5483C344.891 21.8494 346.383 23.2983 348.386 23.2983C348.897 23.2983 349.281 23.2131 349.749 23.0426L349.664 22.4034C349.238 22.5312 348.897 22.6165 348.514 22.6165C346.852 22.6165 345.616 21.4659 345.957 19.5483L347.97 7.31818H351.369L351.496 6.63636ZM365.255 23.3409C369.09 23.3409 372.584 19.7188 373.394 14.946C374.161 10.0881 371.86 6.38068 367.94 6.38068C364.147 6.38068 360.653 10.0028 359.843 14.7756C359.033 19.6761 361.377 23.3409 365.255 23.3409ZM365.255 22.6591C361.846 22.6591 359.758 19.3352 360.525 14.946C361.249 10.4716 364.488 7.0625 367.982 7.0625C371.391 7.0625 373.437 10.3864 372.712 14.7756C371.988 19.2926 368.792 22.6591 365.255 22.6591ZM395.731 23H409.452L409.58 22.3182H396.711L412.904 1.86364L412.989 1.18182H399.438L399.353 1.86364H412.009L395.859 22.3182L395.731 23Z" fill="#474A57"/>
</svg>
