<svg width="24" height="24" viewBox="0 0 24 24" fill="none" xmlns="http://www.w3.org/2000/svg">
<path opacity="0.1" fill-rule="evenodd" clip-rule="evenodd" d="M0 12C0 5.37258 5.37258 0 12 0C18.6274 0 24 5.37258 24 12C24 18.6274 18.6274 24 12 24C5.37258 24 0 18.6274 0 12Z" fill="white"/>
<path d="M15.4758 12.8155L15.8904 10.301H13.2968V8.6699C13.2968 7.9818 13.6584 7.31068 14.8201 7.31068H16V5.1699C16 5.1699 14.9297 5 13.9068 5C11.7699 5 10.3744 6.20461 10.3744 8.38447V10.301H8V12.8155H10.3744V18.8947C10.8511 18.9643 11.3388 19 11.8356 19C12.3324 19 12.8201 18.9643 13.2968 18.8947V12.8155H15.4758Z" fill="white"/>
</svg>
