<svg width="24" height="25" viewBox="0 0 24 25" fill="none" xmlns="http://www.w3.org/2000/svg">
<path opacity="0.1" fill-rule="evenodd" clip-rule="evenodd" d="M0 12.5723C0 5.94485 5.37258 0.572266 12 0.572266C18.6274 0.572266 24 5.94485 24 12.5723C24 19.1997 18.6274 24.5723 12 24.5723C5.37258 24.5723 0 19.1997 0 12.5723Z" fill="white"/>
<path fill-rule="evenodd" clip-rule="evenodd" d="M12.0006 6.17236C10.2624 6.17236 10.0443 6.17996 9.36161 6.21103C8.68027 6.24223 8.2152 6.3501 7.80827 6.50837C7.38733 6.67184 7.03026 6.8905 6.67452 7.24637C6.31852 7.60211 6.09985 7.95918 5.93585 8.37999C5.77718 8.78706 5.66918 9.25226 5.63851 9.93334C5.60798 10.616 5.59998 10.8343 5.59998 12.5724C5.59998 14.3106 5.60771 14.528 5.63864 15.2107C5.66998 15.8921 5.77784 16.3571 5.93598 16.7641C6.09958 17.185 6.31825 17.5421 6.67412 17.8978C7.02972 18.2538 7.38679 18.473 7.80747 18.6365C8.21467 18.7948 8.67987 18.9026 9.36108 18.9338C10.0438 18.9649 10.2618 18.9725 11.9998 18.9725C13.7381 18.9725 13.9555 18.9649 14.6382 18.9338C15.3195 18.9026 15.7851 18.7948 16.1924 18.6365C16.6132 18.473 16.9697 18.2538 17.3253 17.8978C17.6813 17.5421 17.9 17.185 18.064 16.7642C18.2213 16.3571 18.3293 15.8919 18.3613 15.2109C18.392 14.5282 18.4 14.3106 18.4 12.5724C18.4 10.8343 18.392 10.6161 18.3613 9.93347C18.3293 9.25213 18.2213 8.78706 18.064 8.38012C17.9 7.95918 17.6813 7.60211 17.3253 7.24637C16.9693 6.89037 16.6133 6.6717 16.192 6.50837C15.7839 6.3501 15.3186 6.24223 14.6373 6.21103C13.9546 6.17996 13.7373 6.17236 11.9986 6.17236H12.0006ZM11.4264 7.32569C11.5968 7.32542 11.7869 7.32569 12.0005 7.32569C13.7094 7.32569 13.9119 7.33182 14.5867 7.36249C15.2107 7.39102 15.5494 7.49529 15.775 7.58289C16.0737 7.69889 16.2866 7.83756 16.5105 8.06157C16.7345 8.28557 16.8731 8.4989 16.9894 8.79757C17.077 9.02291 17.1814 9.36158 17.2098 9.98559C17.2405 10.6603 17.2471 10.8629 17.2471 12.5709C17.2471 14.279 17.2405 14.4816 17.2098 15.1563C17.1813 15.7803 17.077 16.119 16.9894 16.3443C16.8734 16.643 16.7345 16.8557 16.5105 17.0795C16.2865 17.3035 16.0738 17.4422 15.775 17.5582C15.5497 17.6462 15.2107 17.7502 14.5867 17.7787C13.912 17.8094 13.7094 17.8161 12.0005 17.8161C10.2916 17.8161 10.0891 17.8094 9.41439 17.7787C8.79038 17.7499 8.45171 17.6457 8.22598 17.5581C7.92731 17.4421 7.71397 17.3034 7.48997 17.0794C7.26597 16.8554 7.1273 16.6426 7.01103 16.3438C6.92343 16.1184 6.81903 15.7798 6.79063 15.1558C6.75996 14.4811 6.75383 14.2784 6.75383 12.5693C6.75383 10.8603 6.75996 10.6587 6.79063 9.98398C6.81916 9.35998 6.92343 9.02131 7.01103 8.79571C7.12703 8.49704 7.26597 8.2837 7.48997 8.0597C7.71397 7.8357 7.92731 7.69703 8.22598 7.58076C8.45158 7.49276 8.79038 7.38876 9.41439 7.36009C10.0048 7.33342 10.2336 7.32542 11.4264 7.32409V7.32569ZM15.4169 8.38837C14.9928 8.38837 14.6488 8.73197 14.6488 9.15611C14.6488 9.58012 14.9928 9.92412 15.4169 9.92412C15.8409 9.92412 16.1849 9.58012 16.1849 9.15611C16.1849 8.73211 15.8409 8.38837 15.4169 8.38837ZM12.0006 9.28571C10.1855 9.28571 8.71389 10.7573 8.71389 12.5724C8.71389 14.3875 10.1855 15.8584 12.0006 15.8584C13.8157 15.8584 15.2868 14.3875 15.2868 12.5724C15.2868 10.7573 13.8157 9.28571 12.0006 9.28571ZM12.0006 10.4391C13.1787 10.4391 14.1339 11.3941 14.1339 12.5724C14.1339 13.7506 13.1787 14.7058 12.0006 14.7058C10.8223 14.7058 9.86721 13.7506 9.86721 12.5724C9.86721 11.3941 10.8223 10.4391 12.0006 10.4391Z" fill="white"/>
</svg>
