<svg width="53" height="53" viewBox="0 0 53 53" fill="none" xmlns="http://www.w3.org/2000/svg">
<rect width="53" height="53" rx="7" fill="#C0DAE5" fill-opacity="0.6"/>
<path d="M26 5.25L38.75 15.1667H31.6808L31.6667 30.75H20.3333V15.1667H13.25L26 5.25Z" stroke="white" stroke-width="2" stroke-linecap="round" stroke-linejoin="round"/>
<path d="M22.6309 39.906V38.806H16.4049V39.906H18.8909L18.9019 46.638L20.1119 46.66V39.906H22.6309ZM26.1398 38.63C25.0472 38.63 24.1745 39.0077 23.5218 39.763C22.8692 40.5183 22.5428 41.5083 22.5428 42.733C22.5428 43.965 22.8692 44.966 23.5218 45.736C24.1745 46.4987 25.0472 46.88 26.1398 46.88C27.2325 46.88 28.1125 46.4987 28.7798 45.736C29.4472 44.966 29.7808 43.965 29.7808 42.733C29.7808 41.5083 29.4472 40.5183 28.7798 39.763C28.1125 39.0077 27.2325 38.63 26.1398 38.63ZM26.1398 45.78C25.4065 45.78 24.8382 45.4977 24.4348 44.933C24.0315 44.361 23.8298 43.6277 23.8298 42.733C23.8298 41.8457 24.0315 41.1233 24.4348 40.566C24.8382 40.0087 25.4065 39.73 26.1398 39.73C26.8658 39.73 27.4342 40.0087 27.8448 40.566C28.2628 41.1233 28.4718 41.8457 28.4718 42.733C28.4718 43.6277 28.2628 44.361 27.8448 44.933C27.4342 45.4977 26.8658 45.78 26.1398 45.78ZM33.9172 38.795H30.7052V46.66H31.9042V43.679H33.9172C34.6578 43.679 35.2848 43.4407 35.7982 42.964C36.3188 42.4873 36.5792 41.908 36.5792 41.226C36.5792 40.5147 36.3188 39.9317 35.7982 39.477C35.2848 39.0223 34.6578 38.795 33.9172 38.795ZM33.8402 42.579H31.9042V39.906H33.8402C34.2068 39.906 34.5442 40.0087 34.8522 40.214C35.1675 40.412 35.3252 40.7493 35.3252 41.226C35.3252 41.6953 35.1675 42.04 34.8522 42.26C34.5442 42.4727 34.2068 42.579 33.8402 42.579Z" fill="white"/>
</svg>
